<?xml version="1.0" encoding="UTF-8" standalone="no"?>
<svg width="124px" height="124px" viewBox="0 0 124 124" version="1.1" xmlns="http://www.w3.org/2000/svg" xmlns:xlink="http://www.w3.org/1999/xlink">
    <!-- Generator: Sketch 3.8.3 (29802) - http://www.bohemiancoding.com/sketch -->
    <title>no_prompt</title>
    <desc>Created with Sketch.</desc>
    <defs></defs>
    <g id="Page-1" stroke="none" stroke-width="1" fill="none" fill-rule="evenodd">
        <g id="无券提示" transform="translate(-313.000000, -368.000000)" fill="#666666">
            <g id="Group" transform="translate(313.000000, 368.000000)">
                <g id="Group-4" transform="translate(8.000000, 0.000000)">
                    <path d="M100,74.6389349 L100,22 L78,0 L7.99897848,0 C3.57988357,0 0,3.58236644 0,8.0014394 L0,111.998561 C0,116.408638 3.57874658,120 7.99335421,120 L60.7375353,120 C59.2979264,118.793052 57.9733003,117.453449 56.7824676,116 L7.99745594,116 C5.78972199,116 4,114.218134 4,111.997365 L4,8.00263463 C4,5.79204057 5.79774843,4 7.99941455,4 L76,4 L96,24 L96,71.6182435 C97.4180144,72.5140009 98.7557568,73.5253071 100,74.6389349 Z" id="Combined-Shape"></path>
                    <path d="M72,0 L78,0 L100,22 L100,28 L80.0049345,28 C75.5839312,28 72,24.4253403 72,19.9950655 L72,0 Z M76,4 L96,24 L83.9907535,24 C79.5775822,24 76,20.4244008 76,16.0092465 L76,4 Z" id="Combined-Shape"></path>
                    <path d="M80,121 C93.254834,121 104,110.254834 104,97 C104,83.745166 93.254834,73 80,73 C66.745166,73 56,83.745166 56,97 C56,110.254834 66.745166,121 80,121 Z M80,117 C91.045695,117 100,108.045695 100,97 C100,85.954305 91.045695,77 80,77 C68.954305,77 60,85.954305 60,97 C60,108.045695 68.954305,117 80,117 Z" id="Combined-Shape"></path>
                    <rect id="Rectangle-40" transform="translate(101.363961, 117.363961) rotate(45.000000) translate(-101.363961, -117.363961) " x="94.363961" y="115.363961" width="14" height="4" rx="2"></rect>
                </g>
            </g>
        </g>
    </g>
</svg>