<?xml version="1.0" encoding="UTF-8" standalone="no"?>
<svg width="120px" height="120px" viewBox="0 0 120 120" version="1.1" xmlns="http://www.w3.org/2000/svg" xmlns:xlink="http://www.w3.org/1999/xlink">
    <!-- Generator: Sketch 3.8.3 (29802) - http://www.bohemiancoding.com/sketch -->
    <title>100m</title>
    <desc>Created with Sketch.</desc>
    <defs></defs>
    <g id="Page-1" stroke="none" stroke-width="1" fill="none" fill-rule="evenodd">
        <g id="岭南优品票券" transform="translate(-62.000000, -516.000000)">
            <g id="Group-5" transform="translate(62.000000, 516.000000)">
                <g id="Group-Copy-2">
                    <g id="Group-Copy">
                        <path d="M0,44 C0,37.372583 5.36967945,32 12.0000766,32 L107.999923,32 C114.627383,32 120,37.3711258 120,44 C120,50.627417 114.630321,56 107.999923,56 L12.0000766,56 C5.37261729,56 0,50.6288742 0,44 Z M44,28 L58,28 L58,14 C58,6.2680135 51.7319865,0 44,0 C36.2680135,0 30,6.2680135 30,14 C30,21.7319865 36.2680135,28 44,28 Z M76,28 L62,28 L62,14 C62,6.2680135 68.2680135,0 76,0 C83.7319865,0 90,6.2680135 90,14 C90,21.7319865 83.7319865,28 76,28 Z M13,56 L107,56 L107,111.991485 C107,116.414466 103.415614,120 99.0058984,120 L20.9941016,120 C16.5790812,120 13,116.421945 13,111.991485 L13,56 Z" id="Combined-Shape" fill="#FFFFFF"></path>
                        <path d="M13,69.9 C13,69.9 18.9841256,78.6011554 30.0909091,78.5 C41.1976929,78.6011543 47.1818182,69.9 47.1818182,69.9 C47.1818182,69.9 55.7272727,57 72.8181818,57 C89.9090909,57 98.4545455,69.9 98.4545455,69.9 C98.4545455,69.9 102.727273,74.2809239 107,74.2 L107,112.008676 C107,116.422163 103.415614,120 99.0058984,120 L20.9941016,120 C16.5790812,120 13,116.417037 13,112.006108 L13,69.9 Z" id="Path-1-Copy" fill-opacity="0.15" fill="#FF5E1C" opacity="0.45" transform="translate(60.000000, 88.500000) scale(-1, 1) translate(-60.000000, -88.500000) "></path>
                        <path d="M13,69.9 C13,69.9 18.9841256,78.6011554 30.0909091,78.5 C41.1976929,78.6011543 47.1818182,69.9 47.1818182,69.9 C47.1818182,69.9 55.7272727,57 72.8181818,57 C89.9090909,57 98.4545455,69.9 98.4545455,69.9 C98.4545455,69.9 102.727273,74.2809239 107,74.2 L107,112.008676 C107,116.422163 103.415614,120 99.0058984,120 L20.9941016,120 C16.5790812,120 13,116.417037 13,112.006108 L13,69.9 Z" id="Path-1" fill-opacity="0.45" fill="#FF5E1C" opacity="0.75"></path>
                    </g>
                    <path d="M37.40625,103 L31.3945312,103 L31.3945312,87.8828125 C31.3945312,87.0156207 31.2128924,86.4003924 30.8496094,86.0371094 C30.4863263,85.6738263 29.7890677,85.4921875 28.7578125,85.4921875 L27.8789062,85.4921875 L27.8789062,82.6796875 C29.2148504,82.3984361 30.3749951,81.9179721 31.359375,81.2382812 C32.2031292,80.6523408 33.0351521,79.8437552 33.8554688,78.8125 L37.40625,78.8125 L37.40625,103 Z M55.3710938,95.0898438 C55.3710938,96.6132889 55.3593751,97.5156236 55.3359375,97.796875 C55.2187494,99.1796944 54.7968786,100.351558 54.0703125,101.3125 C52.9921821,102.742195 51.3750108,103.457031 49.21875,103.457031 C47.9296811,103.457031 46.8750041,103.29883 46.0546875,102.982422 C45.2343709,102.666014 44.5195343,102.109379 43.9101562,101.3125 C43.3007782,100.515621 42.925782,99.7128947 42.7851562,98.9042969 C42.6445305,98.0956991 42.5742188,96.9414137 42.5742188,95.4414062 L42.5742188,86.96875 C42.5742188,85.374992 42.6503899,84.0918017 42.8027344,83.1191406 C42.9550789,82.1464795 43.2773413,81.3085973 43.7695312,80.6054688 C44.2617212,79.9023402 44.9531205,79.3515645 45.84375,78.953125 C46.7343795,78.5546855 47.7304632,78.3554688 48.8320312,78.3554688 C50.0976626,78.3554688 51.216792,78.5957007 52.1894531,79.0761719 C53.1621142,79.556643 53.8945288,80.2187458 54.3867188,81.0625 C54.8554711,81.7890661 55.1367183,82.5566366 55.2304688,83.3652344 C55.3242192,84.1738322 55.3710938,85.374992 55.3710938,86.96875 L55.3710938,95.0898438 Z M49.9570312,96.953125 L49.9570312,84.9648438 L49.9570312,84.3320312 C49.9570312,83.5351523 49.9042974,82.9609393 49.7988281,82.609375 C49.6933588,82.2578107 49.4296896,82.0820312 49.0078125,82.0820312 C48.6328106,82.0820312 48.3691414,82.2519514 48.2167969,82.5917969 C48.0644524,82.9316423 47.9882812,83.4179656 47.9882812,84.0507812 L47.9882812,96.7773438 L47.9882812,98.5351562 C48.0585941,99.3320352 48.3867158,99.7304688 48.9726562,99.7304688 C49.417971,99.7304688 49.6933588,99.5488299 49.7988281,99.1855469 C49.9042974,98.8222638 49.9570312,98.0781306 49.9570312,96.953125 L49.9570312,96.953125 Z M69.9960938,95.0898438 C69.9960938,96.6132889 69.9843751,97.5156236 69.9609375,97.796875 C69.8437494,99.1796944 69.4218786,100.351558 68.6953125,101.3125 C67.6171821,102.742195 66.0000108,103.457031 63.84375,103.457031 C62.5546811,103.457031 61.5000041,103.29883 60.6796875,102.982422 C59.8593709,102.666014 59.1445343,102.109379 58.5351562,101.3125 C57.9257782,100.515621 57.550782,99.7128947 57.4101562,98.9042969 C57.2695305,98.0956991 57.1992188,96.9414137 57.1992188,95.4414062 L57.1992188,86.96875 C57.1992188,85.374992 57.2753899,84.0918017 57.4277344,83.1191406 C57.5800789,82.1464795 57.9023413,81.3085973 58.3945312,80.6054688 C58.8867212,79.9023402 59.5781205,79.3515645 60.46875,78.953125 C61.3593795,78.5546855 62.3554632,78.3554688 63.4570312,78.3554688 C64.7226626,78.3554688 65.841792,78.5957007 66.8144531,79.0761719 C67.7871142,79.556643 68.5195288,80.2187458 69.0117188,81.0625 C69.4804711,81.7890661 69.7617183,82.5566366 69.8554688,83.3652344 C69.9492192,84.1738322 69.9960938,85.374992 69.9960938,86.96875 L69.9960938,95.0898438 Z M64.5820312,96.953125 L64.5820312,84.9648438 L64.5820312,84.3320312 C64.5820312,83.5351523 64.5292974,82.9609393 64.4238281,82.609375 C64.3183588,82.2578107 64.0546896,82.0820312 63.6328125,82.0820312 C63.2578106,82.0820312 62.9941414,82.2519514 62.8417969,82.5917969 C62.6894524,82.9316423 62.6132812,83.4179656 62.6132812,84.0507812 L62.6132812,96.7773438 L62.6132812,98.5351562 C62.6835941,99.3320352 63.0117158,99.7304688 63.5976562,99.7304688 C64.042971,99.7304688 64.3183588,99.5488299 64.4238281,99.1855469 C64.5292974,98.8222638 64.5820312,98.0781306 64.5820312,96.953125 L64.5820312,96.953125 Z M92.1445312,103 L86.6601562,103 L86.6601562,86.6523438 L84.09375,103 L80.1914062,103 L77.5546875,87.0039062 L77.5546875,103 L72.0703125,103 L72.0703125,78.8125 L80.5078125,78.8125 C80.7656263,80.6406341 80.964843,82.0703073 81.1054688,83.1015625 C81.5507835,86.2422032 81.8906238,88.5742111 82.125,90.0976562 C82.3359386,88.8789002 82.5703112,87.2968847 82.828125,85.3515625 C82.9921883,84.1328064 83.1679678,82.6328214 83.3554688,80.8515625 C83.4257816,80.1718716 83.4960934,79.4921909 83.5664062,78.8125 L92.1445312,78.8125 L92.1445312,103 Z" id="100M" fill="#FFFFFF"></path>
                </g>
            </g>
        </g>
    </g>
</svg>