<?xml version="1.0" encoding="UTF-8" standalone="no"?>
<svg width="120px" height="120px" viewBox="0 0 120 120" version="1.1" xmlns="http://www.w3.org/2000/svg" xmlns:xlink="http://www.w3.org/1999/xlink">
    <!-- Generator: Sketch 3.8.3 (29802) - http://www.bohemiancoding.com/sketch -->
    <title>10m</title>
    <desc>Created with Sketch.</desc>
    <defs></defs>
    <g id="Page-1" stroke="none" stroke-width="1" fill="none" fill-rule="evenodd">
        <g id="岭南优品票券" transform="translate(-62.000000, -1052.000000)">
            <g id="Group-7" transform="translate(62.000000, 1052.000000)">
                <g id="Group-Copy-4">
                    <g id="Group-Copy">
                        <path d="M0,44 C0,37.372583 5.36967945,32 12.0000766,32 L107.999923,32 C114.627383,32 120,37.3711258 120,44 C120,50.627417 114.630321,56 107.999923,56 L12.0000766,56 C5.37261729,56 0,50.6288742 0,44 Z M44,28 L58,28 L58,14 C58,6.2680135 51.7319865,0 44,0 C36.2680135,0 30,6.2680135 30,14 C30,21.7319865 36.2680135,28 44,28 Z M76,28 L62,28 L62,14 C62,6.2680135 68.2680135,0 76,0 C83.7319865,0 90,6.2680135 90,14 C90,21.7319865 83.7319865,28 76,28 Z M13,56 L107,56 L107,111.991485 C107,116.414466 103.415614,120 99.0058984,120 L20.9941016,120 C16.5790812,120 13,116.421945 13,111.991485 L13,56 Z" id="Combined-Shape" fill="#FFFFFF"></path>
                        <path d="M13,69.9 C13,69.9 18.9841256,78.6011554 30.0909091,78.5 C41.1976929,78.6011543 47.1818182,69.9 47.1818182,69.9 C47.1818182,69.9 55.7272727,57 72.8181818,57 C89.9090909,57 98.4545455,69.9 98.4545455,69.9 C98.4545455,69.9 102.727273,74.2809239 107,74.2 L107,112.008676 C107,116.422163 103.415614,120 99.0058984,120 L20.9941016,120 C16.5790812,120 13,116.417037 13,112.006108 L13,69.9 Z" id="Path-1-Copy" fill-opacity="0.15" fill="#7AA8DC" transform="translate(60.000000, 88.500000) scale(-1, 1) translate(-60.000000, -88.500000) "></path>
                        <path d="M13,69.9 C13,69.9 18.9841256,78.6011554 30.0909091,78.5 C41.1976929,78.6011543 47.1818182,69.9 47.1818182,69.9 C47.1818182,69.9 55.7272727,57 72.8181818,57 C89.9090909,57 98.4545455,69.9 98.4545455,69.9 C98.4545455,69.9 102.727273,74.2809239 107,74.2 L107,112.008676 C107,116.422163 103.415614,120 99.0058984,120 L20.9941016,120 C16.5790812,120 13,116.417037 13,112.006108 L13,69.9 Z" id="Path-1" fill-opacity="0.45" fill="#7AA8DC" opacity="0.75"></path>
                    </g>
                    <path d="M44.40625,103 L38.3945312,103 L38.3945312,87.8828125 C38.3945312,87.0156207 38.2128924,86.4003924 37.8496094,86.0371094 C37.4863263,85.6738263 36.7890677,85.4921875 35.7578125,85.4921875 L34.8789062,85.4921875 L34.8789062,82.6796875 C36.2148504,82.3984361 37.3749951,81.9179721 38.359375,81.2382812 C39.2031292,80.6523408 40.0351521,79.8437552 40.8554688,78.8125 L44.40625,78.8125 L44.40625,103 Z M62.3710938,95.0898438 C62.3710938,96.6132889 62.3593751,97.5156236 62.3359375,97.796875 C62.2187494,99.1796944 61.7968786,100.351558 61.0703125,101.3125 C59.9921821,102.742195 58.3750108,103.457031 56.21875,103.457031 C54.9296811,103.457031 53.8750041,103.29883 53.0546875,102.982422 C52.2343709,102.666014 51.5195343,102.109379 50.9101562,101.3125 C50.3007782,100.515621 49.925782,99.7128947 49.7851562,98.9042969 C49.6445305,98.0956991 49.5742188,96.9414137 49.5742188,95.4414062 L49.5742188,86.96875 C49.5742188,85.374992 49.6503899,84.0918017 49.8027344,83.1191406 C49.9550789,82.1464795 50.2773413,81.3085973 50.7695312,80.6054688 C51.2617212,79.9023402 51.9531205,79.3515645 52.84375,78.953125 C53.7343795,78.5546855 54.7304632,78.3554688 55.8320312,78.3554688 C57.0976626,78.3554688 58.216792,78.5957007 59.1894531,79.0761719 C60.1621142,79.556643 60.8945288,80.2187458 61.3867188,81.0625 C61.8554711,81.7890661 62.1367183,82.5566366 62.2304688,83.3652344 C62.3242192,84.1738322 62.3710938,85.374992 62.3710938,86.96875 L62.3710938,95.0898438 Z M56.9570312,96.953125 L56.9570312,84.9648438 L56.9570312,84.3320312 C56.9570312,83.5351523 56.9042974,82.9609393 56.7988281,82.609375 C56.6933588,82.2578107 56.4296896,82.0820312 56.0078125,82.0820312 C55.6328106,82.0820312 55.3691414,82.2519514 55.2167969,82.5917969 C55.0644524,82.9316423 54.9882812,83.4179656 54.9882812,84.0507812 L54.9882812,96.7773438 L54.9882812,98.5351562 C55.0585941,99.3320352 55.3867158,99.7304688 55.9726562,99.7304688 C56.417971,99.7304688 56.6933588,99.5488299 56.7988281,99.1855469 C56.9042974,98.8222638 56.9570312,98.0781306 56.9570312,96.953125 L56.9570312,96.953125 Z M84.5195312,103 L79.0351562,103 L79.0351562,86.6523438 L76.46875,103 L72.5664062,103 L69.9296875,87.0039062 L69.9296875,103 L64.4453125,103 L64.4453125,78.8125 L72.8828125,78.8125 C73.1406263,80.6406341 73.339843,82.0703073 73.4804688,83.1015625 C73.9257835,86.2422032 74.2656238,88.5742111 74.5,90.0976562 C74.7109386,88.8789002 74.9453112,87.2968847 75.203125,85.3515625 C75.3671883,84.1328064 75.5429678,82.6328214 75.7304688,80.8515625 C75.8007816,80.1718716 75.8710934,79.4921909 75.9414062,78.8125 L84.5195312,78.8125 L84.5195312,103 Z" id="10M" fill="#FFFFFF"></path>
                </g>
            </g>
        </g>
    </g>
</svg>