<?xml version="1.0" encoding="UTF-8" standalone="no"?>
<svg width="120px" height="120px" viewBox="0 0 120 120" version="1.1" xmlns="http://www.w3.org/2000/svg" xmlns:xlink="http://www.w3.org/1999/xlink">
    <!-- Generator: Sketch 3.8.3 (29802) - http://www.bohemiancoding.com/sketch -->
    <title>5m</title>
    <desc>Created with Sketch.</desc>
    <defs></defs>
    <g id="Page-1" stroke="none" stroke-width="1" fill="none" fill-rule="evenodd">
        <g id="岭南优品票券" transform="translate(-62.000000, -1320.000000)">
            <g id="Group-8" transform="translate(62.000000, 1320.000000)">
                <g id="Group-Copy-5">
                    <g id="Group-Copy">
                        <path d="M0,44 C0,37.372583 5.36967945,32 12.0000766,32 L107.999923,32 C114.627383,32 120,37.3711258 120,44 C120,50.627417 114.630321,56 107.999923,56 L12.0000766,56 C5.37261729,56 0,50.6288742 0,44 Z M44,28 L58,28 L58,14 C58,6.2680135 51.7319865,0 44,0 C36.2680135,0 30,6.2680135 30,14 C30,21.7319865 36.2680135,28 44,28 Z M76,28 L62,28 L62,14 C62,6.2680135 68.2680135,0 76,0 C83.7319865,0 90,6.2680135 90,14 C90,21.7319865 83.7319865,28 76,28 Z M13,56 L107,56 L107,111.991485 C107,116.414466 103.415614,120 99.0058984,120 L20.9941016,120 C16.5790812,120 13,116.421945 13,111.991485 L13,56 Z" id="Combined-Shape" fill="#FFFFFF"></path>
                        <path d="M13,69.9 C13,69.9 18.9841256,78.6011554 30.0909091,78.5 C41.1976929,78.6011543 47.1818182,69.9 47.1818182,69.9 C47.1818182,69.9 55.7272727,57 72.8181818,57 C89.9090909,57 98.4545455,69.9 98.4545455,69.9 C98.4545455,69.9 102.727273,74.2809239 107,74.2 L107,120 L13,120 L13,69.9 Z" id="Path-1-Copy" fill-opacity="0.15" fill="#7AA8DC" transform="translate(60.000000, 88.500000) scale(-1, 1) translate(-60.000000, -88.500000) "></path>
                        <path d="M13,69.9 C13,69.9 18.9841256,78.6011554 30.0909091,78.5 C41.1976929,78.6011543 47.1818182,69.9 47.1818182,69.9 C47.1818182,69.9 55.7272727,57 72.8181818,57 C89.9090909,57 98.4545455,69.9 98.4545455,69.9 C98.4545455,69.9 102.727273,74.2809239 107,74.2 L107,112.008676 C107,116.422163 103.415614,120 99.0058984,120 L20.9941016,120 C16.5790812,120 13,116.417037 13,112.006108 L13,69.9 Z" id="Path-1" fill-opacity="0.45" fill="#7AA8DC" opacity="0.75"></path>
                    </g>
                    <path d="M54.640625,95.3710938 L54.640625,96.0390625 C54.640625,97.4453195 54.6289979,98.2656238 54.6057434,98.5 C54.5824889,98.7343762 54.4891976,99.1210911 54.3258667,99.6601562 C53.6267665,102.191419 51.6336834,103.457031 48.3465576,103.457031 C45.8526487,103.457031 44.081121,102.730476 43.0319214,101.277344 C42.5192235,100.62109 42.1754464,99.8183641 42.0005798,98.8691406 C41.8257132,97.9199171 41.7382812,96.7070386 41.7382812,95.2304688 L41.7382812,94.6328125 L47.1171875,94.6328125 L47.1171875,95.40625 L47.1171875,98.078125 C47.1171875,99.179693 47.4929162,99.7304688 48.2443848,99.7304688 C48.8991732,99.7304688 49.2265625,98.8984458 49.2265625,97.234375 L49.2265625,96.5136719 L49.2265625,95.96875 L49.2265625,91.1875 C49.2265625,90.3437458 49.1562507,89.7460955 49.015625,89.3945312 C48.8749993,89.042967 48.5820335,88.8671875 48.1367188,88.8671875 C47.7617169,88.8671875 47.4980476,89.042967 47.3457031,89.3945312 C47.1933586,89.7460955 47.1171875,90.2851526 47.1171875,91.0117188 L41.7382812,91.0117188 L41.9492188,78.8125 L53.5507812,78.8125 L53.5507812,82.6796875 L46.90625,82.6796875 L46.90625,86.7929688 C47.3046895,86.2773412 47.7148416,85.8906263 48.1367188,85.6328125 C48.6757839,85.3046859 49.3085901,85.140625 50.0351562,85.140625 C51.7695399,85.140625 52.9882777,85.7031194 53.6914062,86.828125 C54.3242219,87.8593802 54.640625,89.5468633 54.640625,91.890625 L54.640625,95.3710938 Z M76.8945312,103 L71.4101562,103 L71.4101562,86.6523438 L68.84375,103 L64.9414062,103 L62.3046875,87.0039062 L62.3046875,103 L56.8203125,103 L56.8203125,78.8125 L65.2578125,78.8125 C65.5156263,80.6406341 65.714843,82.0703073 65.8554688,83.1015625 C66.3007835,86.2422032 66.6406238,88.5742111 66.875,90.0976562 C67.0859386,88.8789002 67.3203112,87.2968847 67.578125,85.3515625 C67.7421883,84.1328064 67.9179678,82.6328214 68.1054688,80.8515625 C68.1757816,80.1718716 68.2460934,79.4921909 68.3164062,78.8125 L76.8945312,78.8125 L76.8945312,103 Z" id="5M" fill="#FFFFFF"></path>
                </g>
            </g>
        </g>
    </g>
</svg>