<?xml version="1.0" encoding="UTF-8" standalone="no"?>
<svg width="44px" height="44px" viewBox="0 0 44 44" version="1.1" xmlns="http://www.w3.org/2000/svg" xmlns:xlink="http://www.w3.org/1999/xlink">
    <!-- Generator: Sketch 3.8.3 (29802) - http://www.bohemiancoding.com/sketch -->
    <title>move1</title>
    <desc>Created with Sketch.</desc>
    <defs></defs>
    <g id="Page-1" stroke="none" stroke-width="1" fill="none" fill-rule="evenodd">
        <g id="岭南优品票券" transform="translate(-50.000000, -1240.000000)" fill="#FFFFFF">
            <g id="Group-9" transform="translate(50.000000, 1240.000000)">
                <g id="Group-2">
                    <path d="M42.8049017,27.0420127 C38.9299889,21.8631817 33.140846,16.5638155 31.5401352,15.2529563 C30.4186718,14.3348437 29.3051805,13.8740831 28.2038007,13.8903507 C27.1010411,13.9033648 26.0361491,14.3633507 25.0934453,15.1925338 C24.9056404,15.3583085 24.6333617,15.6024775 24.2986857,15.9033507 C21.997961,17.8632099 14.8866718,24.4681676 14.7250829,24.6218577 C14.1863512,25.1329704 13.4949226,25.4666887 12.7197868,25.4388014 C12.0360237,25.4116887 11.2866439,25.1018296 10.518407,24.3821817 C9.99010035,23.8874915 7.56090174,21.9606324 4.72159861,18.7356183 C2.9750899,16.7514352 1.53259512,14.9839986 1.53259512,14.9839986 C1.53259512,14.9839986 1.21279024,15.6509704 1.03357073,16.1154493 C0.88378676,16.5021535 1.01287387,16.7457028 1.08508293,16.8513648 C2.03315261,18.2263648 6.36554286,23.464069 12.3366648,28.6639704 C13.4302258,29.6164775 14.5714662,30.0428437 15.6725394,30.0268859 C16.775299,30.0138718 17.8403443,29.5535761 18.7830481,28.724393 C18.9710063,28.5589282 19.2437449,28.3144493 19.577961,28.0135761 C21.878839,26.0537169 26.1876195,22.0628859 28.2298634,20.1493507 C28.666184,19.7493225 28.9898216,19.449069 29.1512571,19.295069 C29.6901422,18.7842662 30.3814174,18.4499282 31.1567066,18.4781254 C31.8407763,18.5055479 32.5614871,18.8474775 33.3582397,19.5353648 C34.634853,20.637069 36.7039261,22.5701254 39.1550481,25.1813085 C40.9567484,27.100731 42.3327066,28.8945056 42.3474244,28.9141817 C42.3474244,28.9141817 42.6830202,28.2242803 42.8608599,27.7519 C43.0072711,27.3639563 42.8815568,27.1442662 42.8049017,27.0420127" id="Fill-1"></path>
                    <path d="M19.7967805,8.00609437 C17.7979233,9.48086901 9.56532404,17.2079817 7.95066202,19.0559817 C7.95066202,19.0559817 9.10891986,20.3487141 10.8473031,21.803038 C11.297115,22.1939254 11.8445854,22.111038 12.3140209,21.6335451 C15.4841672,18.4114746 21.9538537,12.6467 22.8232753,11.9425451 C25.262439,9.84944648 28.1035819,9.66492535 30.7052544,11.6345451 C37.023777,16.4186155 42.6108571,23.9433901 43.5725714,25.347207 C43.5725714,25.347207 43.7154564,24.6557563 43.80223,24.033869 C43.8071359,23.9979254 43.9247247,23.4389394 43.6079861,22.9679535 C37.6822439,14.3210239 31.3767526,8.9852493 28.9556794,7.65502394 C26.184446,6.12850282 22.9859373,5.65302394 19.7967805,8.00609437" id="Fill-3"></path>
                    <path d="M13.1318383,3.4931662 C9.06590105,6.81299718 3.8292878,11.6977718 2.5000892,13.1720817 C2.5000892,13.1720817 3.49123902,14.4184901 5.04641672,15.9574056 C5.34629129,16.2164479 5.66456307,16.1465746 5.92810314,15.8652225 C9.94912056,11.9402366 14.3080334,7.93468732 16.8356571,5.95933521 C21.102124,2.62478592 26.1060125,2.30191268 30.9829603,6.2416169 C32.7990718,7.70957465 34.412354,9.16110986 36.766584,11.6111662 C39.7769812,14.9283634 41.74303,17.6985042 43.8924376,20.8223493 C43.8924376,20.8223493 43.8827791,19.9858845 43.6448418,18.8753493 C43.6046746,18.6886592 43.5220404,18.383293 43.3894272,18.1137155 C42.9575526,17.2365042 41.0571206,13.9433211 38.3007582,10.6904197 C32.8341798,4.23899718 29.3837826,2.27433521 27.1710578,1.10167324 C24.2393087,-0.457228169 18.5229882,-0.911171831 13.1318383,3.4931662" id="Fill-5"></path>
                    <path d="M24.0959024,35.9111268 C26.0949129,34.4360423 34.3273589,26.7090845 35.9421742,24.8615493 C35.9421742,24.8615493 34.7833031,23.568507 33.0453798,22.1140282 C32.5955679,21.7231408 32.0479443,21.8060282 31.578662,22.2835211 C28.4083624,25.5057465 21.9388293,31.2705211 21.0692544,31.9743662 C18.6302439,34.0677746 15.789101,34.2522958 13.1872753,32.2823662 C6.86890592,27.4986056 1.28167247,19.9735211 0.320264808,18.5700141 C0.320264808,18.5700141 0.177073171,19.2614648 0.0907595819,19.8833521 C0.0855470383,19.9189859 -0.0323484321,20.4782817 0.284696864,20.9491127 C6.21043902,29.5958873 12.5159303,34.9319718 14.9371568,36.2621972 C17.7083902,37.7887183 20.9065923,38.2641972 24.0959024,35.9111268" id="Fill-8"></path>
                    <path d="M30.7609979,40.4237451 C34.8267819,37.1042239 40.0632418,32.2191394 41.3924404,30.7451394 C41.3924404,30.7451394 40.4012906,29.4984211 38.8464195,27.9595056 C38.5466983,27.7004634 38.2282732,27.7706465 37.9648864,28.0519986 C33.9437157,31.9768296 29.5844962,35.9825338 27.0573324,37.9578859 C22.7907122,41.2924352 17.7868237,41.6151535 12.9097226,37.6749845 C11.0936111,36.2076465 9.48063554,34.7561113 7.12609895,32.3060549 C4.11524181,28.9885479 2.14965296,26.2188718 9.19860627e-05,23.094562 C9.19860627e-05,23.094562 -0.0152390244,23.9014352 0.247841115,25.041562 C0.290921254,25.2279423 0.370335889,25.5339282 0.503255749,25.8031958 C0.935283624,26.6807169 2.83571568,29.9735901 5.59177143,33.2268014 C11.0581965,39.6779141 14.5089003,41.6428859 16.7213185,42.815238 C19.6530676,44.3744493 25.3696948,44.828393 30.7609979,40.4237451" id="Fill-10"></path>
                </g>
            </g>
        </g>
    </g>
</svg>